<svg xmlns="http://www.w3.org/2000/svg" width="24" height="24" viewBox="0 0 24 24"><g fill="#C61F48"><path d="M12 23.711c-6.457 0-11.71-5.253-11.71-11.71C.29 5.543 5.543.29 12 .29s11.711 5.253 11.711 11.711c0 6.457-5.254 11.71-11.711 11.71zm-6.591-4.232a10.163 10.163 0 0 0 6.649 2.506c2.424 0 4.686-.872 6.548-2.521a10.88 10.88 0 0 1-1.87-2.699l-.05-.104 1.46-.715.051.104c.364.747.879 1.472 1.573 2.209 2.553-3.156 3.353-8.425-.004-12.552-.698.749-1.214 1.474-1.573 2.215l-.051.104-1.459-.709.05-.103c.474-.98 1.1-1.889 1.862-2.702a9.902 9.902 0 0 0-6.556-2.501 9.999 9.999 0 0 0-6.625 2.506 10.91 10.91 0 0 1 1.864 2.696l.05.103-1.459.712-.051-.102c-.367-.743-.882-1.465-1.574-2.205-2.08 2.59-3.736 7.965 0 12.559.701-.75 1.217-1.476 1.574-2.215l.05-.104 1.46.708-.051.104a10.978 10.978 0 0 1-1.868 2.706zm10.755-4.101a10.964 10.964 0 0 1-.004-6.76l.036-.109 1.54.5-.035.109a9.4 9.4 0 0 0 .005 5.761l.035.109-1.541.499-.036-.109zm-9.902-.39l.036-.109a9.37 9.37 0 0 0-.004-5.761l-.036-.11 1.542-.5.036.109c.712 2.182.714 4.583.005 6.76l-.036.109-1.543-.498z"/><path d="M12 .404c6.396 0 11.596 5.199 11.596 11.597 0 6.395-5.2 11.595-11.596 11.595S.404 18.396.404 12.001C.404 5.604 5.604.404 12 .404M5.921 7.875c-.43-.869-1.019-1.63-1.684-2.328-2.118 2.549-4.002 8.099 0 12.907.665-.697 1.259-1.46 1.684-2.339l1.253.607c-.5 1.023-1.15 1.95-1.931 2.764a10.232 10.232 0 0 0 6.814 2.614c2.319 0 4.7-.809 6.713-2.631a10.692 10.692 0 0 1-1.932-2.756l1.254-.613c.426.875 1.016 1.638 1.683 2.333 2.549-3.062 3.648-8.518-.004-12.9-.668.702-1.258 1.463-1.683 2.338l-1.253-.609a10.756 10.756 0 0 1 1.925-2.758c-1.965-1.773-4.356-2.609-6.721-2.609-2.466 0-4.902.91-6.791 2.615.781.813 1.43 1.735 1.926 2.753l-1.253.612m10.349.778l1.322.429a9.484 9.484 0 0 0 .005 5.832l-1.323.429a10.802 10.802 0 0 1-.004-6.69m-8.543 0c.762 2.336.654 4.694.005 6.689l-1.324-.429a9.44 9.44 0 0 0-.004-5.832l1.323-.428M12 .174C5.479.174.174 5.48.174 12.001S5.479 23.825 12 23.825s11.825-5.304 11.825-11.824C23.825 5.48 18.521.174 12 .174zM5.579 4.525a9.882 9.882 0 0 1 6.46-2.4c2.336 0 4.596.849 6.391 2.395a10.965 10.965 0 0 0-1.801 2.643l-.1.207.206.1 1.253.609.207.101.101-.207c.339-.698.818-1.384 1.464-2.089 3.186 4.019 2.439 9.097.003 12.201-.641-.695-1.12-1.379-1.463-2.084l-.102-.207-.206.102-1.254.613-.207.101.102.206a10.92 10.92 0 0 0 1.808 2.641c-1.824 1.581-4.026 2.415-6.383 2.415-2.358 0-4.708-.872-6.484-2.399.727-.79 1.334-1.68 1.807-2.647l.101-.207-.208-.101-1.253-.607-.207-.101-.1.208c-.337.696-.817 1.382-1.464 2.089-3.537-4.457-2-9.629.001-12.207.638.697 1.118 1.379 1.464 2.079l.102.205.206-.101 1.252-.613.206-.101-.1-.206a11.035 11.035 0 0 0-1.802-2.638zm10.543 3.839l-.071.218a11.082 11.082 0 0 0 .004 6.832l.071.218.219-.07 1.323-.429.219-.071-.071-.219a9.285 9.285 0 0 1-.005-5.69l.071-.219-.219-.071-1.322-.429-.219-.07zm-8.248 0l-.218.071-1.324.428-.219.071.071.219a9.245 9.245 0 0 1 .004 5.689l-.071.219.219.071 1.324.429.218.07.071-.218a11.111 11.111 0 0 0-.005-6.832l-.07-.217z"/></g></svg>