<svg xmlns="http://www.w3.org/2000/svg" width="24" height="24" viewBox="0 0 24 24"><path fill="#C61F48" stroke="#C61F48" stroke-width=".26" stroke-miterlimit="10" d="M1.941 12.449A12.347 12.347 0 0 0 8.42 9.471l2.526 2.526-6.583 6.577a10.055 10.055 0 0 1-2.422-6.125zM12.454 1.937c2.194.098 4.36.906 6.124 2.428L12 10.941 9.476 8.417a12.29 12.29 0 0 0 2.978-6.48zM5.423 4.36a10.057 10.057 0 0 1 5.523-2.391A10.844 10.844 0 0 1 8.42 7.357L5.423 4.36zm1.942 4.057a10.836 10.836 0 0 1-5.386 2.525 10.01 10.01 0 0 1 2.39-5.522l2.996 2.997zm14.704 3.262a12.4 12.4 0 0 0-6.362 2.964l-2.651-2.646 6.577-6.578a10.026 10.026 0 0 1 2.436 6.26zm-5.284 4.048a10.816 10.816 0 0 1 5.21-2.488 10.059 10.059 0 0 1-2.362 5.341l-2.848-2.853zm-1.055 1.055l2.847 2.847a10 10 0 0 1-5.34 2.362 10.874 10.874 0 0 1 2.493-5.209zm-4.047 5.284a10.053 10.053 0 0 1-6.26-2.433L12 13.053l2.651 2.65a12.38 12.38 0 0 0-2.968 6.363zm8.505-18.257c-4.514-4.514-11.866-4.514-16.38 0-4.513 4.514-4.513 11.867 0 16.38 4.519 4.519 11.867 4.515 16.38 0 4.519-4.518 4.519-11.866 0-16.38z"/></svg>