<svg xmlns="http://www.w3.org/2000/svg" width="24" height="24" viewBox="0 0 24 24"><path fill="#C61F48" d="M20.044 21.255l.021-13.64-16.11-.023-.021 13.639a.274.274 0 0 0 .275.273l15.562.025a.276.276 0 0 0 .273-.274zm2.22-15.832l-.024 16.109a2.196 2.196 0 0 1-2.199 2.193l-16.11-.026a2.193 2.193 0 0 1-2.194-2.196l.023-16.11a2.195 2.195 0 0 1 2.2-2.192l2.197.004L6.16.822a.555.555 0 0 1 .55-.549l1.832.003a.55.55 0 0 1 .547.55l-.003 2.383 5.857.009.005-2.383a.551.551 0 0 1 .55-.549l1.831.002c.302.001.55.248.549.551l-.003 2.381 2.195.003a2.2 2.2 0 0 1 2.194 2.2zm-4.411 11.892l.004-1.831a.548.548 0 0 0-.55-.547l-1.83-.004a.548.548 0 0 0-.55.548l-.002 1.828a.548.548 0 0 0 .547.552l1.831.003a.55.55 0 0 0 .55-.549zm-8.789-.014l.004-1.828a.549.549 0 0 0-.549-.55l-1.83-.003a.55.55 0 0 0-.55.548l-.002 1.829a.548.548 0 0 0 .548.55l1.831.004a.55.55 0 0 0 .548-.55zm4.393.009l.004-1.831a.55.55 0 0 0-.548-.55l-1.829-.003a.55.55 0 0 0-.552.548l-.003 1.83c0 .306.247.551.549.552l1.83.002a.546.546 0 0 0 .549-.548zm4.403-4.388l.003-1.831a.551.551 0 0 0-.549-.55l-1.831-.003a.551.551 0 0 0-.55.549l-.004 1.833a.551.551 0 0 0 .549.551l1.83.001a.554.554 0 0 0 .552-.55zm-4.395-.006l.003-1.831a.55.55 0 0 0-.548-.551l-1.831-.002a.55.55 0 0 0-.55.549l-.003 1.831c0 .303.246.55.548.552l1.832.001a.55.55 0 0 0 .549-.549zm-4.943.542l-1.831-.003a.55.55 0 0 1-.549-.55l.003-1.831a.55.55 0 0 1 .55-.549l1.831.002a.55.55 0 0 1 .547.551l-.002 1.832a.55.55 0 0 1-.549.548z"/></svg>