<svg xmlns="http://www.w3.org/2000/svg" width="40.167" height="40.167" viewBox="0 0 40.167 40.167"><ellipse opacity=".75" fill="#231F20" cx="20.084" cy="20.083" rx="19.058" ry="19.041"/><path fill="#FFF" d="M21.876 19.515l-9.85-9.922a.809.809 0 0 0-1.141 0l-1.328 1.328a.805.805 0 0 0 0 1.139l7.95 8.023-7.95 8.025a.805.805 0 0 0 0 1.139l1.328 1.328a.809.809 0 0 0 1.141 0l9.85-9.921a.806.806 0 0 0 0-1.139zm10.734 1.139l-9.85 9.921a.809.809 0 0 1-1.141 0l-1.329-1.328a.805.805 0 0 1 0-1.139l7.95-8.025-7.95-8.023a.805.805 0 0 1 0-1.139l1.329-1.328a.809.809 0 0 1 1.141 0l9.85 9.922a.805.805 0 0 1 0 1.139z"/></svg>