<svg xmlns="http://www.w3.org/2000/svg" width="30" height="30" viewBox="0 0 30 30"><path fill="#C61F48" d="M19.062 15.574v-1.149c0-.316.255-.574.574-.574h4.983c.316 0 .572.258.572.574v1.149a.574.574 0 0 1-.572.575h-4.983a.572.572 0 0 1-.574-.575zm0-4.445v-1.15c0-.317.255-.574.574-.574h4.983c.316 0 .572.257.572.574v1.149a.576.576 0 0 1-.572.577h-4.983a.573.573 0 0 1-.574-.576zm0 8.891v-1.148c0-.319.255-.577.574-.577h4.983c.316 0 .572.258.572.577v1.148a.574.574 0 0 1-.572.575h-4.983a.574.574 0 0 1-.574-.575zm-9.196 0v-1.148c0-.319.256-.577.574-.577h6.513c.318 0 .573.258.573.577v1.148a.574.574 0 0 1-.573.575H10.44a.576.576 0 0 1-.574-.575zm1.915-8.7h3.833v2.913h-3.833V11.32zm-1.341 4.829h6.513a.573.573 0 0 0 .573-.575V9.979a.573.573 0 0 0-.573-.574H10.44a.573.573 0 0 0-.574.574v5.595c0 .318.257.575.574.575zm17.05 6.744H7.539c.017-.126.028-.252.028-.383V7.107H27.49v15.786zM2.508 22.51V8.639h2.76V22.51c-.015.706-2.166.383-2.377.383a.382.382 0 0 1-.383-.383zM28.641 4.809H7.567A2.3 2.3 0 0 0 5.4 6.34H1.36A1.15 1.15 0 0 0 .211 7.49v15.02a2.68 2.68 0 0 0 2.681 2.682h25.75c.634 0 1.149-.514 1.149-1.148V5.957a1.15 1.15 0 0 0-1.15-1.148z"/></svg>