<svg xmlns="http://www.w3.org/2000/svg" width="30" height="30" viewBox="0 0 30 30"><path fill="#C61F48" d="M25.085 3.863c0-.654-.562-1.181-1.252-1.181H1.413c-.69 0-1.25.526-1.25 1.181v16.426c0 .654.561 1.184 1.25 1.184h1.251V5.042h22.421V3.863zm.509 19.212H9.555v-3.75l4.868-4.867a.362.362 0 0 1 .505 0l2.745 2.745c.14.138.365.138.504 0l2.046-2.046a.36.36 0 0 1 .504 0l4.868 4.866v3.052zm1.009-12.9c.558 0 1.008.45 1.008 1.007v12.902c0 .556-.45 1.008-1.008 1.008H8.546a1.008 1.008 0 0 1-1.008-1.008V11.182c0-.557.45-1.007 1.008-1.007h18.057m0-2.227H8.546a3.238 3.238 0 0 0-3.236 3.233v12.902a3.239 3.239 0 0 0 3.236 3.233h18.056a3.239 3.239 0 0 0 3.235-3.233V11.182a3.237 3.237 0 0 0-3.234-3.234z"/></svg>