<svg xmlns="http://www.w3.org/2000/svg" width="32" height="21.52" viewBox="0 0 32 21.52"><path fill="#C61F48" d="M29.046 18.585h-.659l-7.169-7.167v-1.317l7.169-7.169h.659v15.653zm-10.439 0H2.955V2.932h15.653v15.653zM29.046.324h-.659c-.72 0-1.336.255-1.846.765l-5.323 5.323v-3.48a2.608 2.608 0 0 0-2.61-2.607H2.955A2.608 2.608 0 0 0 .347 2.932v15.653a2.607 2.607 0 0 0 2.608 2.61h15.653a2.608 2.608 0 0 0 2.61-2.61v-3.479l5.323 5.325a2.52 2.52 0 0 0 1.846.764h.659a2.607 2.607 0 0 0 2.607-2.61V2.932A2.608 2.608 0 0 0 29.046.324z"/></svg>