<svg xmlns="http://www.w3.org/2000/svg" width="30" height="30" viewBox="0 0 30 30"><path fill="#C61F48" d="M15 .469C6.984.469.469 6.984.469 15S6.984 29.531 15 29.531 29.531 23.016 29.531 15 23.016.469 15 .469zm10.078 22.154a17.277 17.277 0 0 1-14.514-2.748 17.11 17.11 0 0 1 4.482-3.797c4.939 2.76 9.363 2.643 12.158 2.221a12.615 12.615 0 0 1-2.126 4.324zm2.508-6.281c-1.43.27-2.865.375-4.289.287a19.12 19.12 0 0 0-3.621-13.377c3.469 1.383 8.683 5.754 7.91 13.09zM16.547 2.449A17.26 17.26 0 0 1 21.434 16.4a17.126 17.126 0 0 1-5.52-1.975A19.033 19.033 0 0 0 11.76 2.771c2.355-.615 4.06-.41 4.787-.322zm-6.674.99c.943 1.102 1.758 2.291 2.391 3.562a19.158 19.158 0 0 0-9.774 9.815C1.289 8.543 7.688 4.412 9.873 3.439zM3.352 19.945a17.266 17.266 0 0 1 9.645-11.221 17.238 17.238 0 0 1 1.049 5.766 19.031 19.031 0 0 0-8.016 9.428 12.676 12.676 0 0 1-2.678-3.973zm4.201 5.268a17.246 17.246 0 0 1 1.881-3.826c2.783 2.027 7.365 4.213 13.389 3.545-3.077 2.425-9.417 4.564-15.27.281z"/></svg>