<?xml version="1.0" encoding="utf-8"?>
<!-- Generator: Adobe Illustrator 16.0.4, SVG Export Plug-In . SVG Version: 6.00 Build 0)  -->
<!DOCTYPE svg PUBLIC "-//W3C//DTD SVG 1.1//EN" "http://www.w3.org/Graphics/SVG/1.1/DTD/svg11.dtd">
<svg version="1.1" id="Layer_1" xmlns="http://www.w3.org/2000/svg" xmlns:xlink="http://www.w3.org/1999/xlink" x="0px" y="0px"
	 width="26px" height="26px" viewBox="0 0 26 26" enable-background="new 0 0 26 26" xml:space="preserve">
<g>
	<path fill="#C61F48" d="M13,25.657c-6.979,0-12.657-5.678-12.657-12.656C0.343,6.021,6.021,0.343,13,0.343
		s12.657,5.678,12.657,12.658C25.657,19.979,19.979,25.657,13,25.657z M5.875,21.084c1.953,1.723,4.565,2.709,7.187,2.709
		c2.62,0,5.065-0.942,7.078-2.727c-0.816-0.861-1.496-1.842-2.021-2.917l-0.055-0.111l1.578-0.771l0.054,0.111
		c0.396,0.811,0.952,1.593,1.701,2.389c2.76-3.412,3.624-9.107-0.004-13.568c-0.756,0.81-1.312,1.594-1.701,2.394l-0.054,0.112
		l-1.578-0.766l0.054-0.112c0.512-1.059,1.188-2.041,2.014-2.92c-1.978-1.744-4.488-2.703-7.086-2.703
		c-2.641,0-5.179,0.961-7.161,2.709c0.821,0.873,1.498,1.853,2.015,2.915L7.95,7.938l-1.577,0.77L6.318,8.597
		C5.921,7.793,5.364,7.013,4.617,6.214c-2.248,2.799-4.039,8.608,0,13.574c0.757-0.809,1.314-1.593,1.701-2.394l0.054-0.112
		l1.579,0.765l-0.055,0.112C7.372,19.231,6.692,20.215,5.875,21.084z M17.501,16.651c-0.771-2.363-0.772-4.958-0.005-7.307
		l0.038-0.118l1.666,0.54l-0.038,0.118c-0.649,2.004-0.647,4.215,0.005,6.227l0.038,0.118l-1.666,0.54L17.501,16.651z M6.798,16.229
		l0.039-0.118c0.653-2.005,0.651-4.216-0.005-6.227L6.793,9.767l1.667-0.54l0.039,0.118c0.77,2.358,0.772,4.954,0.005,7.307
		L8.466,16.77L6.798,16.229z"/>
	<path fill="#C61F48" d="M13,0.467c6.913,0,12.533,5.62,12.533,12.534c0,6.912-5.62,12.532-12.533,12.532
		c-6.914,0-12.533-5.62-12.533-12.532C0.467,6.086,6.086,0.467,13,0.467 M6.43,8.542C5.965,7.603,5.329,6.779,4.61,6.026
		c-2.289,2.755-4.326,8.753,0,13.95c0.718-0.753,1.36-1.578,1.819-2.527l1.354,0.656c-0.541,1.106-1.243,2.107-2.087,2.987
		c1.977,1.787,4.631,2.825,7.365,2.825c2.507,0,5.081-0.874,7.256-2.844c-0.849-0.876-1.547-1.871-2.088-2.979l1.354-0.662
		c0.461,0.945,1.098,1.77,1.819,2.521c2.755-3.31,3.943-9.207-0.005-13.943c-0.722,0.759-1.359,1.582-1.818,2.527L18.227,7.88
		c0.534-1.106,1.237-2.103,2.08-2.982c-2.124-1.917-4.709-2.82-7.265-2.82c-2.666,0-5.299,0.983-7.339,2.826
		C6.546,5.783,7.248,6.779,7.784,7.88L6.43,8.542 M17.614,9.383l1.43,0.463c-0.616,1.901-0.702,4.125,0.005,6.303l-1.43,0.464
		C16.796,14.088,16.911,11.535,17.614,9.383 M8.381,9.383c0.824,2.525,0.708,5.074,0.005,7.23l-1.431-0.464
		c0.618-1.897,0.708-4.119-0.005-6.303L8.381,9.383 M13,0.218c-7.048,0-12.782,5.734-12.782,12.783
		c0,7.047,5.734,12.78,12.782,12.78s12.781-5.733,12.781-12.78C25.781,5.953,20.048,0.218,13,0.218L13,0.218z M6.06,4.921
		c1.945-1.675,4.414-2.594,6.982-2.594c2.525,0,4.968,0.917,6.908,2.589c-0.794,0.864-1.449,1.824-1.947,2.857l-0.107,0.223
		l0.223,0.108l1.354,0.658l0.224,0.108l0.108-0.224c0.366-0.753,0.885-1.494,1.582-2.258c3.443,4.344,2.637,9.832,0.004,13.188
		c-0.691-0.75-1.21-1.489-1.582-2.253l-0.109-0.223l-0.224,0.108l-1.354,0.662l-0.223,0.109l0.108,0.224
		c0.512,1.047,1.169,2.006,1.954,2.854c-1.972,1.709-4.352,2.61-6.899,2.61c-2.549,0-5.088-0.942-7.008-2.593
		c0.786-0.855,1.443-1.817,1.954-2.861l0.109-0.225l-0.224-0.108l-1.354-0.656l-0.224-0.108L6.206,17.34
		c-0.365,0.755-0.884,1.496-1.583,2.258C0.801,14.78,2.462,9.191,4.625,6.405c0.689,0.753,1.208,1.49,1.583,2.247l0.109,0.221
		l0.222-0.108l1.354-0.661l0.223-0.109L8.008,7.771C7.504,6.737,6.849,5.779,6.06,4.921L6.06,4.921z M17.455,9.07l-0.077,0.236
		c-0.775,2.374-0.773,4.996,0.005,7.385l0.077,0.235l0.236-0.076l1.43-0.464l0.236-0.077l-0.077-0.236
		c-0.645-1.986-0.646-4.17-0.005-6.149l0.076-0.236L19.12,9.61l-1.43-0.463L17.455,9.07L17.455,9.07z M8.54,9.07L8.304,9.146
		L6.874,9.61L6.637,9.687l0.077,0.237c0.648,1.985,0.649,4.169,0.005,6.149l-0.077,0.236l0.237,0.077L8.31,16.85l0.236,0.076
		l0.077-0.235c0.774-2.379,0.772-5.001-0.005-7.385L8.54,9.07L8.54,9.07z"/>
</g>
</svg>
