<?xml version="1.0" encoding="utf-8"?>
<!-- Generator: Adobe Illustrator 16.0.4, SVG Export Plug-In . SVG Version: 6.00 Build 0)  -->
<!DOCTYPE svg PUBLIC "-//W3C//DTD SVG 1.1//EN" "http://www.w3.org/Graphics/SVG/1.1/DTD/svg11.dtd">
<svg version="1.1" id="Layer_1" xmlns="http://www.w3.org/2000/svg" xmlns:xlink="http://www.w3.org/1999/xlink" x="0px" y="0px"
	 width="32px" height="32px" viewBox="0 0 32 32" enable-background="new 0 0 32 32" xml:space="preserve">
<path fill="#C61F48" d="M26.909,28.521V10.05H5.092v18.471c0,0.203,0.166,0.372,0.373,0.372h21.074
	C26.741,28.893,26.909,28.724,26.909,28.521z M29.884,7.077v21.815c0,1.645-1.332,2.973-2.975,2.973H5.092
	c-1.643,0-2.976-1.328-2.976-2.973V7.077c0-1.644,1.333-2.973,2.976-2.973h2.975V0.878c0-0.409,0.334-0.744,0.743-0.744h2.479
	c0.41,0,0.743,0.335,0.743,0.744v3.226h7.935V0.878c0-0.409,0.334-0.744,0.743-0.744h2.479c0.409,0,0.745,0.335,0.745,0.744v3.226
	h2.975C28.552,4.104,29.884,5.433,29.884,7.077z M23.935,23.189v-2.478c0-0.411-0.336-0.743-0.745-0.743H20.71
	c-0.409,0-0.743,0.332-0.743,0.743v2.478c0,0.413,0.334,0.745,0.743,0.745h2.479C23.599,23.935,23.935,23.603,23.935,23.189z
	 M12.032,23.189v-2.478c0-0.411-0.333-0.743-0.743-0.743H8.81c-0.409,0-0.743,0.332-0.743,0.743v2.478
	c0,0.413,0.334,0.745,0.743,0.745h2.479C11.699,23.935,12.032,23.603,12.032,23.189z M17.981,23.189v-2.478
	c0-0.411-0.332-0.743-0.742-0.743H14.76c-0.409,0-0.744,0.332-0.744,0.743v2.478c0,0.413,0.335,0.745,0.744,0.745h2.479
	C17.649,23.935,17.981,23.603,17.981,23.189z M23.935,17.241v-2.479c0-0.41-0.336-0.745-0.745-0.745H20.71
	c-0.409,0-0.743,0.335-0.743,0.745v2.479c0,0.408,0.334,0.744,0.743,0.744h2.479C23.599,17.985,23.935,17.649,23.935,17.241z
	 M17.981,17.241v-2.479c0-0.41-0.332-0.745-0.742-0.745H14.76c-0.409,0-0.744,0.335-0.744,0.745v2.479
	c0,0.408,0.335,0.744,0.744,0.744h2.479C17.649,17.985,17.981,17.649,17.981,17.241z M11.29,17.985H8.81
	c-0.409,0-0.743-0.336-0.743-0.744v-2.479c0-0.41,0.334-0.745,0.743-0.745h2.479c0.41,0,0.743,0.335,0.743,0.745v2.479
	C12.032,17.649,11.699,17.985,11.29,17.985z"/>
</svg>
