<?xml version="1.0" encoding="utf-8"?>
<!-- Generator: Adobe Illustrator 16.0.4, SVG Export Plug-In . SVG Version: 6.00 Build 0)  -->
<!DOCTYPE svg PUBLIC "-//W3C//DTD SVG 1.1//EN" "http://www.w3.org/Graphics/SVG/1.1/DTD/svg11.dtd">
<svg version="1.1" id="Layer_1" xmlns="http://www.w3.org/2000/svg" xmlns:xlink="http://www.w3.org/1999/xlink" x="0px" y="0px"
	 width="28px" height="28px" viewBox="0 0 28 28" enable-background="new 0 0 28 28" xml:space="preserve">
<path fill="#C61F48" d="M23.446,24.869l0.024-16.018L4.552,8.824L4.527,24.841c-0.001,0.175,0.144,0.322,0.323,0.322l18.273,0.028
	C23.3,25.191,23.446,25.044,23.446,24.869z M26.054,6.277l-0.028,18.918c-0.002,1.426-1.159,2.576-2.583,2.575L4.523,27.74
	c-1.425-0.002-2.579-1.154-2.577-2.58L1.975,6.242c0.002-1.425,1.159-2.577,2.584-2.574l2.58,0.004l0.004-2.798
	C7.144,0.52,7.435,0.229,7.788,0.229l2.15,0.004c0.354,0,0.644,0.291,0.643,0.646l-0.004,2.798l6.88,0.011l0.005-2.798
	c0.001-0.354,0.29-0.646,0.646-0.645l2.15,0.003c0.354,0.001,0.646,0.291,0.646,0.646l-0.005,2.797l2.579,0.004
	C24.901,3.698,26.055,4.852,26.054,6.277z M20.873,20.242l0.004-2.149c0-0.356-0.29-0.644-0.646-0.644l-2.149-0.004
	c-0.355,0-0.646,0.287-0.646,0.645l-0.003,2.146c-0.001,0.359,0.288,0.647,0.644,0.647l2.149,0.004
	C20.582,20.888,20.873,20.6,20.873,20.242z M10.553,20.226l0.004-2.147c0-0.356-0.288-0.646-0.645-0.646L7.763,17.43
	c-0.354,0-0.645,0.287-0.646,0.644l-0.003,2.147c-0.001,0.358,0.289,0.646,0.644,0.646l2.15,0.004
	C10.263,20.871,10.552,20.584,10.553,20.226z M15.711,20.235l0.004-2.149c0-0.356-0.287-0.644-0.643-0.646l-2.149-0.004
	c-0.355,0-0.646,0.287-0.646,0.644l-0.004,2.149c0,0.358,0.29,0.646,0.645,0.647l2.149,0.002
	C15.424,20.881,15.711,20.594,15.711,20.235z M20.882,15.083l0.004-2.149c0-0.355-0.291-0.646-0.646-0.646l-2.15-0.004
	c-0.354,0-0.646,0.29-0.646,0.645L17.44,15.08c-0.001,0.354,0.289,0.646,0.644,0.646l2.15,0.003
	C20.589,15.729,20.881,15.438,20.882,15.083z M15.72,15.076l0.004-2.15c0.001-0.355-0.288-0.646-0.644-0.646l-2.15-0.003
	c-0.354,0-0.646,0.289-0.646,0.645L12.28,15.07c0,0.355,0.289,0.646,0.645,0.648l2.15,0.001
	C15.431,15.722,15.719,15.432,15.72,15.076z M9.915,15.713l-2.149-0.004c-0.355,0-0.645-0.291-0.645-0.646l0.004-2.15
	c0-0.354,0.291-0.646,0.646-0.645l2.15,0.003c0.354,0.001,0.643,0.291,0.643,0.646l-0.004,2.151
	C10.56,15.422,10.271,15.713,9.915,15.713z"/>
</svg>
