<?xml version="1.0" encoding="utf-8"?>
<!-- Generator: Adobe Illustrator 16.0.4, SVG Export Plug-In . SVG Version: 6.00 Build 0)  -->
<!DOCTYPE svg PUBLIC "-//W3C//DTD SVG 1.1//EN" "http://www.w3.org/Graphics/SVG/1.1/DTD/svg11.dtd">
<svg version="1.1" id="Layer_1" xmlns="http://www.w3.org/2000/svg" xmlns:xlink="http://www.w3.org/1999/xlink" x="0px" y="0px"
	 width="512px" height="512px" viewBox="0 0 512 512" enable-background="new 0 0 512 512" xml:space="preserve">
<path fill="#FFFFFF" d="M359.098,509.31H152.902C74.004,509.31,9.45,444.757,9.45,365.857V146.143
	C9.45,67.243,74.004,2.69,152.902,2.69h206.195c78.898,0,143.452,64.553,143.452,143.452v219.715
	C502.55,444.757,437.996,509.31,359.098,509.31 M359.098,471.404c28.033,0,54.494-11.023,74.508-31.037
	c20.015-20.014,31.037-46.475,31.037-74.51V146.143c0-28.034-11.022-54.495-31.037-74.51
	c-20.014-20.015-46.475-31.036-74.508-31.036H152.902c-28.034,0-54.495,11.021-74.51,31.036s-31.036,46.476-31.036,74.51v219.715
	c0,28.035,11.021,54.496,31.036,74.51s46.476,31.037,74.51,31.037H359.098z"/>
<path fill="#FFFFFF" d="M392.546,254.045c0,74.99-60.793,135.783-135.785,135.783c-74.99,0-135.783-60.793-135.783-135.783
	c0-74.992,60.793-135.784,135.783-135.784C331.753,118.261,392.546,179.053,392.546,254.045 M256.108,165.239
	c-49.106,0-88.913,39.808-88.913,88.912c0,49.105,39.807,88.914,88.913,88.914s88.912-39.809,88.912-88.914
	C345.021,205.047,305.215,165.239,256.108,165.239"/>
<path fill="#FFFFFF" d="M426.877,116.148c0,17.757-14.395,32.152-32.151,32.152s-32.151-14.396-32.151-32.152
	c0-17.756,14.395-32.151,32.151-32.151S426.877,98.393,426.877,116.148"/>
</svg>
