<?xml version="1.0" encoding="utf-8"?>
<!-- Generator: Adobe Illustrator 16.0.4, SVG Export Plug-In . SVG Version: 6.00 Build 0)  -->
<!DOCTYPE svg PUBLIC "-//W3C//DTD SVG 1.1//EN" "http://www.w3.org/Graphics/SVG/1.1/DTD/svg11.dtd">
<svg version="1.1" id="Layer_1" xmlns="http://www.w3.org/2000/svg" xmlns:xlink="http://www.w3.org/1999/xlink" x="0px" y="0px"
	 width="512px" height="512px" viewBox="0 0 512 512" enable-background="new 0 0 512 512" xml:space="preserve">
<path fill="#FFFFFF" d="M471.977,2.488H40.745c-20.607,0-37.351,16.333-37.351,36.464v433.054c0,20.15,16.743,36.506,37.351,36.506
	h431.231c20.642,0,37.457-16.355,37.457-36.506V38.952C509.434,18.822,492.618,2.488,471.977,2.488z M153.48,433.688H78.422V192.196
	h75.058V433.688z M115.968,159.185c-24.056,0-43.528-19.5-43.528-43.526c0-24.003,19.472-43.504,43.528-43.504
	c23.995,0,43.493,19.501,43.493,43.504C159.461,139.685,139.963,159.185,115.968,159.185z M434.599,433.688h-75.004v-117.44
	c0-28.002-0.515-64.025-39.001-64.025c-39.053,0-45.048,30.504-45.048,62v119.465h-74.99V192.196h71.987v32.998h1.006
	c10.021-18.986,34.502-39.001,71.016-39.001c76.002,0,90.034,50.021,90.034,115.038V433.688z"/>
</svg>
