<?xml version="1.0" encoding="utf-8"?>
<!-- Generator: Adobe Illustrator 16.0.4, SVG Export Plug-In . SVG Version: 6.00 Build 0)  -->
<!DOCTYPE svg PUBLIC "-//W3C//DTD SVG 1.1//EN" "http://www.w3.org/Graphics/SVG/1.1/DTD/svg11.dtd">
<svg version="1.1" id="Layer_1" xmlns="http://www.w3.org/2000/svg" xmlns:xlink="http://www.w3.org/1999/xlink" x="0px" y="0px"
	 width="512px" height="512px" viewBox="0 0 512 512" enable-background="new 0 0 512 512" xml:space="preserve">
<path fill="#FFFFFF" d="M210.581,406.865c3.097-11.204,17.719-69.232,17.719-69.232c8.761,16.693,34.337,31.393,61.529,31.393
	c80.967,0,135.894-73.812,135.894-172.612c0-74.692-63.284-144.275-159.441-144.275c-119.665,0-180.004,85.788-180.004,157.333
	c0,43.318,16.39,81.854,51.578,96.22c5.766,2.355,10.933,0.075,12.61-6.304c1.148-4.421,3.923-15.577,5.131-20.211
	c1.687-6.32,1.04-8.534-3.62-14.038c-10.133-11.98-16.604-27.456-16.604-49.398c0-63.64,47.595-120.614,123.995-120.614
	c67.62,0,104.798,41.316,104.798,96.516c0,72.617-32.139,133.905-79.857,133.905c-26.356,0-46.062-21.792-39.752-48.508
	c7.555-31.904,22.241-66.351,22.241-89.381c0-20.604-11.066-37.812-33.975-37.812c-26.94,0-48.573,27.876-48.573,65.198
	c0,23.769,8.047,39.85,8.047,39.85s-27.565,116.791-32.407,137.237c-4.409,18.701-5.06,39.281-4.426,56.623
	c9.809,4.329,19.946,8.048,30.367,11.108C195.223,444.876,205.353,425.883,210.581,406.865z"/>
</svg>
