<?xml version="1.0" encoding="utf-8"?>
<!-- Generator: Adobe Illustrator 16.0.4, SVG Export Plug-In . SVG Version: 6.00 Build 0)  -->
<!DOCTYPE svg PUBLIC "-//W3C//DTD SVG 1.1//EN" "http://www.w3.org/Graphics/SVG/1.1/DTD/svg11.dtd">
<svg version="1.1" id="Layer_1" xmlns="http://www.w3.org/2000/svg" xmlns:xlink="http://www.w3.org/1999/xlink" x="0px" y="0px"
	 width="512px" height="512px" viewBox="0 0 512 512" enable-background="new 0 0 512 512" xml:space="preserve">
<path fill="#FFFFFF" d="M506.622,100.587c-18.439,8.178-38.253,13.706-59.056,16.191c21.232-12.725,37.533-32.875,45.21-56.885
	c-19.863,11.783-41.869,20.34-65.292,24.951c-18.754-19.984-45.479-32.47-75.049-32.47c-56.789,0-102.825,46.037-102.825,102.819
	c0,8.059,0.909,15.906,2.662,23.432c-85.454-4.288-161.217-45.223-211.93-107.43c-8.851,15.187-13.92,32.849-13.92,51.692
	c0,35.671,18.153,67.143,45.742,85.582c-16.855-0.534-32.709-5.159-46.572-12.861c-0.007,0.43-0.009,0.86-0.009,1.293
	c0,49.818,35.443,91.375,82.48,100.821c-8.629,2.349-17.712,3.605-27.089,3.605c-6.626,0-13.067-0.645-19.345-1.844
	c13.084,40.849,51.057,70.577,96.05,71.407c-35.19,27.576-79.524,44.015-127.697,44.015c-8.299,0-16.484-0.488-24.527-1.437
	c45.503,29.173,99.549,46.194,157.615,46.194c189.128,0,292.547-156.675,292.547-292.548c0-4.458-0.1-8.892-0.297-13.301
	C475.404,139.317,492.837,121.207,506.622,100.587z"/>
</svg>
