<?xml version="1.0" encoding="utf-8"?>
<!-- Generator: Adobe Illustrator 16.0.4, SVG Export Plug-In . SVG Version: 6.00 Build 0)  -->
<!DOCTYPE svg PUBLIC "-//W3C//DTD SVG 1.1//EN" "http://www.w3.org/Graphics/SVG/1.1/DTD/svg11.dtd">
<svg version="1.1" id="Layer_1" xmlns="http://www.w3.org/2000/svg" xmlns:xlink="http://www.w3.org/1999/xlink" x="0px" y="0px"
	 width="39.923px" height="26.849px" viewBox="0 0 39.923 26.849" enable-background="new 0 0 39.923 26.849" xml:space="preserve">
<path fill="#C61F48" d="M36.462,23.323h-0.833l-9.067-9.066v-1.666l9.067-9.067h0.833V23.323z M23.26,23.323H3.461v-19.8H23.26
	V23.323z M36.462,0.225h-0.833c-0.911,0-1.689,0.322-2.334,0.967l-6.733,6.733V3.523c0-1.822-1.478-3.299-3.302-3.299H3.461
	c-1.822,0-3.299,1.477-3.299,3.299v19.8c0,1.825,1.477,3.301,3.299,3.301H23.26c1.824,0,3.302-1.476,3.302-3.301v-4.4l6.733,6.734
	c0.645,0.645,1.423,0.967,2.334,0.967h0.833c1.822,0,3.299-1.476,3.299-3.301v-19.8C39.761,1.701,38.285,0.225,36.462,0.225z"/>
</svg>
