<svg xmlns="http://www.w3.org/2000/svg" width="512" height="512" viewBox="0 0 512 512"><path fill="#FFF" d="M393.859 170.531a113.014 113.014 0 0 1-32.479 8.905c11.677-6.998 20.642-18.081 24.865-31.286a113.213 113.213 0 0 1-35.91 13.723c-10.315-10.991-25.015-17.858-41.278-17.858-31.234 0-56.554 25.32-56.554 56.55 0 4.433.501 8.749 1.465 12.888-47-2.358-88.67-24.873-116.562-59.087-4.868 8.354-7.656 18.067-7.656 28.432 0 19.618 9.984 36.929 25.158 47.069a56.313 56.313 0 0 1-25.615-7.073c-.004.236-.005.473-.005.712 0 27.399 19.493 50.256 45.364 55.451a56.653 56.653 0 0 1-14.899 1.982c-3.645 0-7.187-.354-10.64-1.014 7.196 22.467 28.081 38.816 52.827 39.274-19.354 15.166-43.738 24.208-70.233 24.208-4.564 0-9.066-.269-13.489-.79 25.026 16.045 54.751 25.406 86.688 25.406 104.021 0 160.9-86.171 160.9-160.901 0-2.452-.054-4.891-.163-7.315a114.95 114.95 0 0 0 28.216-29.276z"/></svg>